<mxfile host="app.diagrams.net" agent="Mozilla/5.0 (Windows NT 10.0; Win64; x64) AppleWebKit/537.36 (KHTML, like Gecko) Chrome/136.0.0.0 Safari/537.36 Edg/136.0.0.0" version="27.0.6">
  <diagram name="Page-1" id="krVHmjFHWsqSrIXWMG2W">
    <mxGraphModel dx="2363" dy="1260" grid="1" gridSize="10" guides="1" tooltips="1" connect="1" arrows="1" fold="1" page="1" pageScale="1" pageWidth="827" pageHeight="1169" math="0" shadow="0">
      <root>
        <mxCell id="0" />
        <mxCell id="1" parent="0" />
        <mxCell id="bjluGkoaAh4DrakiWX-t-1" value="User&lt;div&gt;&lt;br&gt;&lt;/div&gt;" style="shape=umlActor;verticalLabelPosition=bottom;verticalAlign=top;html=1;outlineConnect=0;" vertex="1" parent="1">
          <mxGeometry x="110" y="270" width="30" height="60" as="geometry" />
        </mxCell>
        <mxCell id="bjluGkoaAh4DrakiWX-t-2" value="GPS" style="shape=umlActor;verticalLabelPosition=bottom;verticalAlign=top;html=1;outlineConnect=0;" vertex="1" parent="1">
          <mxGeometry x="110" y="540" width="30" height="60" as="geometry" />
        </mxCell>
        <mxCell id="bjluGkoaAh4DrakiWX-t-3" value="Other Users&lt;div&gt;&lt;br&gt;&lt;/div&gt;" style="shape=umlActor;verticalLabelPosition=bottom;verticalAlign=top;html=1;outlineConnect=0;" vertex="1" parent="1">
          <mxGeometry x="600" y="340" width="30" height="60" as="geometry" />
        </mxCell>
        <mxCell id="bjluGkoaAh4DrakiWX-t-7" value="&lt;h1&gt;MyWaze System&lt;/h1&gt;" style="html=1;whiteSpace=wrap;align=center;verticalAlign=top;" vertex="1" parent="1">
          <mxGeometry x="247.25" y="90" width="230" height="700" as="geometry" />
        </mxCell>
        <mxCell id="bjluGkoaAh4DrakiWX-t-9" value="Open Report Menu" style="ellipse;whiteSpace=wrap;html=1;" vertex="1" parent="1">
          <mxGeometry x="284.5" y="210" width="155.5" height="60" as="geometry" />
        </mxCell>
        <mxCell id="bjluGkoaAh4DrakiWX-t-10" value="Select Incident Type" style="ellipse;whiteSpace=wrap;html=1;" vertex="1" parent="1">
          <mxGeometry x="289.5" y="360" width="150" height="70" as="geometry" />
        </mxCell>
        <mxCell id="bjluGkoaAh4DrakiWX-t-11" value="Submit Report" style="ellipse;whiteSpace=wrap;html=1;" vertex="1" parent="1">
          <mxGeometry x="287" y="490" width="155" height="75" as="geometry" />
        </mxCell>
        <mxCell id="bjluGkoaAh4DrakiWX-t-13" value="" style="endArrow=none;html=1;rounded=0;entryX=0;entryY=0.5;entryDx=0;entryDy=0;" edge="1" parent="1" target="bjluGkoaAh4DrakiWX-t-9">
          <mxGeometry width="50" height="50" relative="1" as="geometry">
            <mxPoint x="150" y="300" as="sourcePoint" />
            <mxPoint x="140" y="390" as="targetPoint" />
          </mxGeometry>
        </mxCell>
        <mxCell id="bjluGkoaAh4DrakiWX-t-14" value="" style="endArrow=none;html=1;rounded=0;entryX=0;entryY=0.5;entryDx=0;entryDy=0;" edge="1" parent="1" target="bjluGkoaAh4DrakiWX-t-10">
          <mxGeometry width="50" height="50" relative="1" as="geometry">
            <mxPoint x="150" y="310" as="sourcePoint" />
            <mxPoint x="265" y="320" as="targetPoint" />
          </mxGeometry>
        </mxCell>
        <mxCell id="bjluGkoaAh4DrakiWX-t-16" value="Notify Other Users&amp;nbsp; &amp;nbsp;&amp;nbsp;" style="ellipse;whiteSpace=wrap;html=1;" vertex="1" parent="1">
          <mxGeometry x="287" y="630" width="155" height="75" as="geometry" />
        </mxCell>
        <mxCell id="bjluGkoaAh4DrakiWX-t-17" value="" style="endArrow=none;html=1;rounded=0;entryX=0;entryY=0.5;entryDx=0;entryDy=0;" edge="1" parent="1" target="bjluGkoaAh4DrakiWX-t-11">
          <mxGeometry width="50" height="50" relative="1" as="geometry">
            <mxPoint x="150" y="580" as="sourcePoint" />
            <mxPoint x="140" y="700" as="targetPoint" />
          </mxGeometry>
        </mxCell>
        <mxCell id="bjluGkoaAh4DrakiWX-t-18" value="" style="endArrow=none;html=1;rounded=0;exitX=1;exitY=0.5;exitDx=0;exitDy=0;" edge="1" parent="1" source="bjluGkoaAh4DrakiWX-t-16">
          <mxGeometry width="50" height="50" relative="1" as="geometry">
            <mxPoint x="540" y="662" as="sourcePoint" />
            <mxPoint x="590" y="380" as="targetPoint" />
          </mxGeometry>
        </mxCell>
      </root>
    </mxGraphModel>
  </diagram>
</mxfile>
